#!OML:ASF H:\MichaelJackson\Top Level 1\Subject 1\Session 1\male.ASF
:FULLY-SPECIFIED
:DEGREES
767
root 8.39009 16.6121 28.5006 -164.561 -141.932 -182.06
lowerback 6.08856 3.3329 3.64578
upperback 1.98796 4.6377 1.0822
thorax -1.15504 2.30515 -1.23813
lowerneck -7.41549 2.17857 5.80754
upperneck 6.64022 2.83237 -6.60845
head 3.36238 1.25996 -2.80844
rclavicle 6.85807e-014 -3.73715e-014
rhumerus -36.2916 -7.58419 -85.0833
rradius 48.8289
rwrist 11.1953
rhand -16.1962 -10.2543
rfingers 7.12502
rthumb 10.0108 -399.996
lclavicle 6.85807e-014 -3.73715e-014
lhumerus -16.6128 -32.0061 88.4896
lradius 85.1343
lwrist -16.5837
lhand -8.17455 21.3045
lfingers 7.12502
lthumb 17.7409 50.5152
rfemur -24.7832 -14.9031 31.5693
rtibia 37.5601
rfoot -26.2647 -9.30371
rtoes 22.227
lfemur -40.5585 -4.57374 -2.21141
ltibia 53.1033
lfoot -13.7064 8.05698
ltoes 18.5866
768
root 8.42129 16.6175 28.5515 -164.756 -143.797 -181.93
lowerback 5.93777 3.22892 3.66199
upperback 1.92287 4.49807 1.09932
thorax -1.14505 2.23597 -1.21395
lowerneck -7.3958 1.96494 5.65054
upperneck 6.37603 2.51744 -6.15209
head 3.61453 1.13876 -2.95671
rclavicle -2.0276e-014 9.54166e-015
rhumerus -37.0837 -7.66122 -84.8343
rradius 48.4343
rwrist 11.7195
rhand -16.4486 -10.1394
rfingers 7.12502
rthumb 9.76737 -399.893
lclavicle -2.0276e-014 9.54166e-015
lhumerus -17.8696 -32.2727 89.7967
lradius 82.9695
lwrist -15.5943
lhand -5.99105 22.8186
lfingers 7.12502
lthumb 19.841 51.8259
rfemur -24.5767 -14.9386 31.4907
rtibia 37.4048
rfoot -26.3419 -11.0019
rtoes 22.0495
lfemur -40.1574 -4.09389 -2.2333
ltibia 51.6409
lfoot -13.4588 8.82857
ltoes 19.0465
769
root 8.45245 16.6225 28.6069 -164.962 -145.645 -181.79
lowerback 5.78259 3.12515 3.67658
upperback 1.85414 4.35831 1.11304
thorax -1.13613 2.16664 -1.19261
lowerneck -7.34203 1.73261 5.44018
upperneck 6.37821 2.21146 -5.9166
head 3.57237 0.99199 -2.85101
rclavicle 3.04141e-014 1.98785e-014
rhumerus -37.8976 -7.71047 -84.5935
rradius 48.0001
rwrist 12.0859
rhand -16.9796 -10.248
rfingers 7.12502
rthumb 9.255 -400.025
lclavicle 3.04141e-014 1.98785e-014
lhumerus -19.1692 -32.4741 91.0886
lradius 80.8089
lwrist -14.6823
lhand -4.24056 24.1797
lfingers 7.12502
lthumb 21.5229 53.0038
rfemur -24.355 -14.9426 31.3713
rtibia 37.2959
rfoot -26.4784 -12.6791
rtoes 21.9814
lfemur -39.7668 -3.62095 -2.34356
ltibia 50.1579
lfoot -13.0589 9.40961
ltoes 18.6502
770
root 8.48415 16.6266 28.6668 -165.173 -147.476 -181.643
lowerback 5.62094 3.02013 3.69249
upperback 1.78338 4.21651 1.1231
thorax -1.12533 2.09628 -1.1757
lowerneck -7.28499 1.48666 5.22568
upperneck 6.38696 1.88849 -5.68738
head 3.53265 0.836416 -2.74786
rclavicle -1.33186e-014 1.03368e-014
rhumerus -38.7245 -7.70124 -84.3756
rradius 47.5258
rwrist 12.2521
rhand -17.7771 -10.6059
rfingers 7.12502
rthumb 8.48548 -400.415
lclavicle -1.33186e-014 1.03368e-014
lhumerus -20.5075 -32.6018 92.353
lradius 78.6537
lwrist -13.9619
lhand -2.86047 25.2951
lfingers 7.12502
lthumb 22.8479 53.9617
rfemur -24.1315 -14.9345 31.2153
rtibia 37.258
rfoot -26.6949 -14.3127
rtoes 22.0108
lfemur -39.3931 -3.15798 -2.5345
ltibia 48.6893
lfoot -12.5222 9.77932
ltoes 17.026
771
root 8.51739 16.6289 28.7309 -165.379 -149.291 -181.481
lowerback 5.43348 2.91196 3.71295
upperback 1.71049 4.06933 1.124
thorax -1.10154 2.02346 -1.1694
lowerneck -7.21997 1.22634 5.01327
upperneck 6.39549 1.54671 -5.46348
head 3.49217 0.671409 -2.64801
rclavicle 7.55382e-015 2.46493e-014
rhumerus -39.5646 -7.61651 -84.1956
rradius 47.0234
rwrist 12.2057
rhand -18.8388 -11.1939
rfingers 7.12502
rthumb 7.46073 -401.042
lclavicle 7.55382e-015 2.46493e-014
lhumerus -21.8799 -32.6462 93.5781
lradius 76.5003
lwrist -13.5543
lhand -1.81224 26.0689
lfingers 7.12502
lthumb 23.8535 54.6078
rfemur -23.9381 -14.9412 31.0244
rtibia 37.3142
rfoot -27.0017 -15.8804
rtoes 22.1265
lfemur -39.0578 -2.71017 -2.80692
ltibia 47.275
lfoot -11.9049 9.92666
ltoes 14.0416
